<svg width="14" height="20" viewBox="0 0 14 20" fill="none" xmlns="http://www.w3.org/2000/svg">
<path d="M7 14.475C8.65 13.1417 9.896 11.8583 10.738 10.625C11.5793 9.39167 12 8.23333 12 7.15C12 6.21667 11.8293 5.42067 11.488 4.762C11.146 4.104 10.725 3.57067 10.225 3.162C9.725 2.754 9.18333 2.45833 8.6 2.275C8.01667 2.09167 7.48333 2 7 2C6.51667 2 5.98333 2.09167 5.4 2.275C4.81667 2.45833 4.275 2.754 3.775 3.162C3.275 3.57067 2.85433 4.104 2.513 4.762C2.171 5.42067 2 6.21667 2 7.15C2 8.23333 2.42067 9.39167 3.262 10.625C4.104 11.8583 5.35 13.1417 7 14.475ZM7 17C4.65 15.2667 2.89567 13.5833 1.737 11.95C0.579 10.3167 0 8.71667 0 7.15C0 5.96667 0.212667 4.929 0.638 4.037C1.06267 3.14567 1.60833 2.4 2.275 1.8C2.94167 1.2 3.69167 0.75 4.525 0.45C5.35833 0.15 6.18333 0 7 0C7.81667 0 8.64167 0.15 9.475 0.45C10.3083 0.75 11.0583 1.2 11.725 1.8C12.3917 2.4 12.9377 3.14567 13.363 4.037C13.7877 4.929 14 5.96667 14 7.15C14 8.71667 13.4207 10.3167 12.262 11.95C11.104 13.5833 9.35 15.2667 7 17ZM7 9C7.55 9 8.021 8.804 8.413 8.412C8.80433 8.02067 9 7.55 9 7C9 6.45 8.80433 5.979 8.413 5.587C8.021 5.19567 7.55 5 7 5C6.45 5 5.97933 5.19567 5.588 5.587C5.196 5.979 5 6.45 5 7C5 7.55 5.196 8.02067 5.588 8.412C5.97933 8.804 6.45 9 7 9ZM0 20V18H14V20H0Z" fill="#1C1B1F"/>
</svg>
